<?xml version="1.0" encoding="UTF-8" standalone="no"?>
<!-- Created with Inkscape (http://www.inkscape.org/) -->

<svg
   width="48"
   height="48"
   viewBox="0 0 48 48"
   version="1.1"
   id="svg1"
   xml:space="preserve"
   inkscape:version="1.4 (e7c3feb100, 2024-10-09)"
   sodipodi:docname="icon.svg"
   inkscape:export-filename="public/icon-32.png"
   inkscape:export-xdpi="64"
   inkscape:export-ydpi="64"
   xmlns:inkscape="http://www.inkscape.org/namespaces/inkscape"
   xmlns:sodipodi="http://sodipodi.sourceforge.net/DTD/sodipodi-0.dtd"
   xmlns="http://www.w3.org/2000/svg"
   xmlns:svg="http://www.w3.org/2000/svg"><sodipodi:namedview
     id="namedview1"
     pagecolor="#ffffff"
     bordercolor="#000000"
     borderopacity="0.25"
     inkscape:showpageshadow="2"
     inkscape:pageopacity="0.0"
     inkscape:pagecheckerboard="0"
     inkscape:deskcolor="#d1d1d1"
     inkscape:document-units="px"
     inkscape:zoom="8"
     inkscape:cx="24.5625"
     inkscape:cy="27.0625"
     inkscape:window-width="1366"
     inkscape:window-height="758"
     inkscape:window-x="0"
     inkscape:window-y="0"
     inkscape:window-maximized="1"
     inkscape:current-layer="layer1" /><defs
     id="defs1" /><g
     id="g5"
     transform="matrix(1.4235528,0,0,1.4235416,-10.144426,-11.484858)"><g
       inkscape:label="body"
       inkscape:groupmode="layer"
       id="layer1"><path
         style="fill:#06798c;fill-opacity:1;stroke:#000000;stroke-width:0.5;stroke-linecap:round;stroke-linejoin:round;stroke-dasharray:none;stroke-opacity:1"
         d="m 13.055392,48.225642 c -0.245683,-2.157275 0.288457,-3.468336 1.07483,-5.429843 2.172315,-5.418567 5.214064,-4.943631 5.786234,-8.426933 0.634031,-3.859905 -4.342721,-4.75427 -4.850915,-10.685336 -0.508195,-5.931065 3.922703,-11.066435 8.59018,-11.11619 4.667477,-0.04975 8.698157,3.615071 9.158378,10.011198 0.46022,6.396128 -5.20574,7.429208 -4.789909,11.58817 0.378718,3.78777 3.704657,2.825541 5.891091,9.114604 1.180302,3.395024 1.056698,4.807066 1.056698,4.807066 0,0 -21.089919,7.396015 -21.916587,0.137264 z"
         id="path1"
         sodipodi:nodetypes="ssszzzsscs" /><path
         style="fill:#fbf1bc;fill-opacity:1;stroke:#000000;stroke-width:0.5;stroke-linecap:round;stroke-linejoin:round;stroke-dasharray:none;stroke-opacity:1"
         d="m 24.453458,14.501362 c 0.662612,-0.199254 1.174079,-0.860883 1.431617,-1.50309 0.424997,-1.059789 1.085367,-3.0533847 0.0059,-3.4254843 -0.325091,-0.1120577 -0.634251,0.8135693 -0.634251,0.8135693 0,0 -0.271652,-2.1113851 -1.042344,-2.0679032 -1.35609,0.07651 -1.413168,3.8218402 -1.413168,3.8218402 0,0 -0.572429,-1.111108 -0.931882,-0.880127 -0.851094,0.546906 0.227552,2.195205 0.978721,2.872857 0.407666,0.367768 1.079625,0.526446 1.605407,0.368338 z"
         id="path2"
         sodipodi:nodetypes="aaacacaaa" /></g><g
       inkscape:groupmode="layer"
       id="layer2"
       inkscape:label="eye1"
       transform="matrix(1.464121,0,0,1.464121,-12.385873,-9.0168074)"
       style="display:inline"><ellipse
         style="fill:#ffffff;fill-opacity:1;stroke:none;stroke-width:0.103063;stroke-linecap:round;stroke-linejoin:round;stroke-dasharray:none;stroke-opacity:1"
         id="path3"
         cx="27.522707"
         cy="21.25386"
         rx="1.4711752"
         ry="2.2023282" /><ellipse
         style="fill:#000000;fill-opacity:1;stroke:none;stroke-width:0.0668951;stroke-linecap:round;stroke-linejoin:round;stroke-dasharray:none;stroke-opacity:1"
         id="path3-6"
         cx="27.226618"
         cy="21.287794"
         rx="0.98238629"
         ry="1.3894633" /><ellipse
         style="fill:#ffffff;fill-opacity:1;stroke:#000000;stroke-width:0;stroke-linecap:round;stroke-linejoin:round;stroke-dasharray:none;stroke-opacity:1"
         id="path3-6-9"
         cx="27.033819"
         cy="20.771809"
         rx="0.35440627"
         ry="0.38613468" /></g><g
       inkscape:groupmode="layer"
       id="layer2-6"
       inkscape:label="eye2"
       transform="matrix(-1.464121,0,0,1.464121,60.378709,-8.9975301)"><ellipse
         style="fill:#ffffff;fill-opacity:1;stroke:none;stroke-width:0.103063;stroke-linecap:round;stroke-linejoin:round;stroke-dasharray:none;stroke-opacity:1"
         id="path3-2"
         cx="27.522707"
         cy="21.25386"
         rx="1.4711752"
         ry="2.2023282" /><ellipse
         style="fill:#000000;fill-opacity:1;stroke:none;stroke-width:0.0668951;stroke-linecap:round;stroke-linejoin:round;stroke-dasharray:none;stroke-opacity:1"
         id="path3-6-6"
         cx="27.226618"
         cy="21.287794"
         rx="0.98238629"
         ry="1.3894633" /><ellipse
         style="fill:#ffffff;fill-opacity:1;stroke:#000000;stroke-width:0;stroke-linecap:round;stroke-linejoin:round;stroke-dasharray:none;stroke-opacity:1"
         id="path3-6-9-1"
         cx="27.033819"
         cy="20.771809"
         rx="0.35440627"
         ry="0.38613468" /></g><g
       inkscape:groupmode="layer"
       id="layer4"
       inkscape:label="mouth"><path
         style="fill:#e66c19;fill-opacity:1;stroke:#000000;stroke-width:0.5;stroke-linecap:round;stroke-linejoin:round;stroke-dasharray:none;stroke-opacity:1"
         d="m 20.39136,27.401744 c 0,0 0.741819,1.502421 3.621376,1.454291 2.879557,-0.04813 3.556061,-1.443242 3.556061,-1.443242 0,0 -2.524389,-1.021162 -3.84993,-0.998161 -1.156771,0.02007 -3.327507,0.987112 -3.327507,0.987112 z"
         id="path5"
         sodipodi:nodetypes="czcac" /><path
         style="display:inline;fill:#fb991c;fill-opacity:1;stroke:#000000;stroke-width:0.5;stroke-linecap:round;stroke-linejoin:round;stroke-dasharray:none;stroke-opacity:1"
         d="m 24.041631,22.516932 c -0.56295,0.0026 -1.132028,-0.604074 -1.646559,-0.375651 -0.988149,0.438683 -1.000029,1.920636 -1.585865,2.829304 -0.436944,0.677727 -1.83335,1.247923 -1.433853,1.948378 0.754448,1.322804 3.022721,-0.465176 4.545528,-0.457376 1.57162,0.008 3.902648,1.882482 4.686153,0.520067 0.437462,-0.76069 -1.091972,-1.377547 -1.566906,-2.115422 -0.558116,-0.86711 -0.55671,-2.289243 -1.500148,-2.705535 -0.46968,-0.207246 -0.984983,0.353896 -1.49835,0.356235 z"
         id="path4"
         sodipodi:nodetypes="aaaaaaaaa" /></g></g></svg>
